<?xml version="1.0" encoding="utf-8"?>
<!-- Generator: Adobe Illustrator 23.0.0, SVG Export Plug-In . SVG Version: 6.00 Build 0)  -->
<svg version="1.1" xmlns="http://www.w3.org/2000/svg" xmlns:xlink="http://www.w3.org/1999/xlink" x="0px" y="0px"
	 viewBox="0 0 102.72 99.53" style="enable-background:new 0 0 102.72 99.53;" xml:space="preserve">
<style type="text/css">
	.st0{fill:#121212;stroke:#000000;stroke-miterlimit:10;}
	.st1{fill:#121427;stroke:#000000;stroke-miterlimit:10;}
	.st2{fill:#FFFFFF;stroke:#000000;stroke-miterlimit:10;}
	.st3{fill:none;stroke:#000000;stroke-width:5;stroke-miterlimit:10;}
	.st4{fill:none;stroke:#000000;stroke-width:5;stroke-linecap:round;stroke-linejoin:round;stroke-miterlimit:10;}
	.st5{fill:none;stroke:#FFFFFF;stroke-width:5;stroke-miterlimit:10;}
	.st6{fill:none;stroke:#FFFFFF;stroke-width:5;stroke-linecap:round;stroke-linejoin:round;stroke-miterlimit:10;}
	.st7{fill:none;stroke:#FFFFFF;stroke-width:4;stroke-linecap:round;stroke-linejoin:round;stroke-miterlimit:10;}
	.st8{fill:#FFFFFF;}
	.st9{opacity:0.07;}
	.st10{opacity:0.6;}
	.st11{fill:none;stroke:#434343;stroke-width:5;stroke-miterlimit:10;}
	.st12{fill:none;stroke:#434343;stroke-width:5;stroke-linecap:round;stroke-linejoin:round;stroke-miterlimit:10;}
</style>
<g id="Layer_1">
	<rect x="-295.44" y="-1023.42" class="st0" width="239.54" height="452.66"/>
	<rect x="-42.72" y="-1023.42" class="st0" width="239.54" height="452.66"/>
	<rect x="460.56" y="-1023.42" class="st1" width="239.54" height="452.66"/>
	<rect x="207.84" y="-1023.42" class="st1" width="239.54" height="452.66"/>
	<rect x="460.56" y="-533.1" class="st2" width="239.54" height="452.66"/>
	<g>
		<path class="st3" d="M616.87-306.77c0,11.16-5,21.15-12.89,27.84v0.01c-2.46,2.09-5.2,3.86-8.15,5.25
			c-4.7,2.21-9.96,3.44-15.5,3.44c-4.32,0-8.46-0.75-12.31-2.13c-3.5-1.25-6.75-3.02-9.67-5.21v-0.01
			c-8.84-6.66-14.56-17.26-14.56-29.19s5.72-22.53,14.56-29.19v-0.01c2.92-2.19,6.17-3.96,9.67-5.21c3.85-1.38,7.99-2.13,12.31-2.13
			c1.07,0,2.14,0.05,3.19,0.14h0.01c7.04,0.61,13.52,3.22,18.84,7.26C611.18-329.24,616.87-318.67,616.87-306.77z"/>
		<g>
			<path class="st4" d="M594.77-340.35h0.01c0.57,1.24,0.98,2.82,1.21,4.75c0.21,2.3,0.32,4.32,0.32,6.07
				c0,2.44-0.42,5.19-1.26,8.26c-0.77,3.07-1.85,5.33-3.24,6.8c-0.91,1.11-1.78,1.88-2.62,2.3c-0.76,0.42-1.56,0.8-2.4,1.15
				c1.25-0.28,2.37-0.63,3.35-1.05c0.97-0.34,1.84-0.66,2.61-0.94c5.58-2.51,9.76-5.51,12.55-8.99c1.8-2.31,3.01-4.82,3.61-7.53
				 M598.47-275.05c-2.96-5.97-6.92-13.95-11.89-23.94c2.72-1.33,5.47-1.53,8.26-0.63c2.79,0.98,4.85,2.79,6.17,5.44
				c1.61,3.25,3.64,7.33,6.1,12.25 M559.39-336.72c0,25.41,0,45.38,0,59.9 M570.16-341.87c0,16.99,0,40.39,0,70.2"/>
		</g>
		<path class="st4" d="M586.79-311.02"/>
	</g>
	<rect x="207.84" y="-533.1" class="st2" width="239.54" height="452.66"/>
	<g>
		<path class="st3" d="M364.15-323.24c0,11.16-5,21.15-12.89,27.84v0.01c-2.46,2.09-5.2,3.86-8.15,5.25
			c-4.7,2.21-9.96,3.44-15.5,3.44c-4.32,0-8.46-0.75-12.31-2.13c-3.5-1.25-6.75-3.02-9.67-5.21v-0.01
			c-8.84-6.66-14.56-17.26-14.56-29.19s5.72-22.53,14.56-29.19v-0.01c2.92-2.19,6.17-3.96,9.67-5.21c3.85-1.38,7.99-2.13,12.31-2.13
			c1.07,0,2.14,0.05,3.19,0.14h0.01c7.04,0.61,13.52,3.22,18.84,7.26C358.46-345.71,364.15-335.14,364.15-323.24z"/>
		<g>
			<path class="st4" d="M342.05-356.82h0.01c0.57,1.24,0.98,2.82,1.21,4.75c0.21,2.3,0.32,4.32,0.32,6.07
				c0,2.44-0.42,5.19-1.26,8.26c-0.77,3.07-1.85,5.33-3.24,6.8c-0.91,1.11-1.78,1.88-2.62,2.3c-0.76,0.42-1.56,0.8-2.4,1.15
				c1.25-0.28,2.37-0.63,3.35-1.05c0.97-0.34,1.84-0.66,2.61-0.94c5.58-2.51,9.76-5.51,12.55-8.99c1.8-2.31,3.01-4.82,3.61-7.53
				 M345.75-291.52c-2.96-5.97-6.92-13.95-11.89-23.94c2.72-1.33,5.47-1.53,8.26-0.63c2.79,0.98,4.85,2.79,6.17,5.44
				c1.61,3.25,3.64,7.33,6.1,12.25 M306.67-353.19c0,25.41,0,45.38,0,59.9 M317.44-358.34c0,16.99,0,40.39,0,70.2"/>
		</g>
		<path class="st4" d="M334.07-327.49"/>
	</g>
	<text transform="matrix(1 0 0 1 276.9581 -256.6483)" style="font-family:'Qanelas-Thin'; font-size:12px; letter-spacing:6;">RAVISARA</text>
	<rect x="-42.72" y="-533.1" class="st0" width="239.54" height="452.66"/>
	<g>
		<path class="st5" d="M113.59-306.77c0,11.16-5,21.15-12.89,27.84v0.01c-2.46,2.09-5.2,3.86-8.15,5.25
			c-4.7,2.21-9.96,3.44-15.5,3.44c-4.32,0-8.46-0.75-12.31-2.13c-3.5-1.25-6.75-3.02-9.67-5.21v-0.01
			c-8.84-6.66-14.56-17.26-14.56-29.19s5.72-22.53,14.56-29.19v-0.01c2.92-2.19,6.17-3.96,9.67-5.21c3.85-1.38,7.99-2.13,12.31-2.13
			c1.07,0,2.14,0.05,3.19,0.14h0.01c7.04,0.61,13.52,3.22,18.84,7.26C107.9-329.24,113.59-318.67,113.59-306.77z"/>
		<g>
			<path class="st6" d="M91.49-340.35h0.01c0.57,1.24,0.98,2.82,1.21,4.75c0.21,2.3,0.32,4.32,0.32,6.07c0,2.44-0.42,5.19-1.26,8.26
				c-0.77,3.07-1.85,5.33-3.24,6.8c-0.91,1.11-1.78,1.88-2.62,2.3c-0.76,0.42-1.56,0.8-2.4,1.15c1.25-0.28,2.37-0.63,3.35-1.05
				c0.97-0.34,1.84-0.66,2.61-0.94c5.58-2.51,9.76-5.51,12.55-8.99c1.8-2.31,3.01-4.82,3.61-7.53 M95.19-275.05
				c-2.96-5.97-6.92-13.95-11.89-23.94c2.72-1.33,5.47-1.53,8.26-0.63c2.79,0.98,4.85,2.79,6.17,5.44c1.61,3.25,3.64,7.33,6.1,12.25
				 M56.11-336.72c0,25.41,0,45.38,0,59.9 M66.88-341.87c0,16.99,0,40.39,0,70.2"/>
		</g>
		<path class="st6" d="M83.51-311.02"/>
	</g>
	<rect x="-296.52" y="-20.46" class="st0" width="239.54" height="452.66"/>
	<path class="st6" d="M-170.29,185.15"/>
	<rect x="-296.52" y="-533.1" class="st0" width="239.54" height="452.66"/>
	<g>
		<g>
			<path class="st5" d="M-140.21-323.24c0,11.16-5,21.15-12.89,27.84v0.01c-2.46,2.09-5.2,3.86-8.15,5.25
				c-4.7,2.21-9.96,3.44-15.5,3.44c-4.32,0-8.46-0.75-12.31-2.13c-3.5-1.25-6.75-3.02-9.67-5.21v-0.01
				c-8.84-6.66-14.56-17.26-14.56-29.19s5.72-22.53,14.56-29.19v-0.01c2.92-2.19,6.17-3.96,9.67-5.21
				c3.85-1.38,7.99-2.13,12.31-2.13c1.07,0,2.14,0.05,3.19,0.14h0.01c7.04,0.61,13.52,3.22,18.84,7.26
				C-145.9-345.71-140.21-335.14-140.21-323.24z"/>
			<g>
				<path class="st6" d="M-162.31-356.82h0.01c0.57,1.24,0.98,2.82,1.21,4.75c0.21,2.3,0.32,4.32,0.32,6.07
					c0,2.44-0.42,5.19-1.26,8.26c-0.77,3.07-1.85,5.33-3.24,6.8c-0.91,1.11-1.78,1.88-2.62,2.3c-0.76,0.42-1.56,0.8-2.4,1.15
					c1.25-0.28,2.37-0.63,3.35-1.05c0.97-0.34,1.84-0.66,2.61-0.94c5.58-2.51,9.76-5.51,12.55-8.99c1.8-2.31,3.01-4.82,3.61-7.53
					 M-158.61-291.52c-2.96-5.97-6.92-13.95-11.89-23.94c2.72-1.33,5.47-1.53,8.26-0.63c2.79,0.98,4.85,2.79,6.17,5.44
					c1.61,3.25,3.64,7.33,6.1,12.25 M-197.69-353.19c0,25.41,0,45.38,0,59.9 M-186.92-358.34c0,16.99,0,40.39,0,70.2"/>
			</g>
			<path class="st6" d="M-170.29-327.49"/>
		</g>
		
			<text transform="matrix(1 0 0 1 -227.4017 -256.6484)" style="fill:#F1F2F2; font-family:'Qanelas-Thin'; font-size:12px; letter-spacing:6;">RAVISARA</text>
	</g>
	<g>
		<g>
			<path class="st5" d="M-136.64,144.48c0,11.16-5,21.15-12.89,27.84v0.01c-2.46,2.09-5.2,3.86-8.15,5.25
				c-4.7,2.21-9.96,3.44-15.5,3.44c-4.32,0-8.46-0.75-12.31-2.13c-3.5-1.25-6.75-3.02-9.67-5.21v-0.01
				c-8.84-6.66-14.56-17.26-14.56-29.19s5.72-22.53,14.56-29.19v-0.01c2.92-2.19,6.17-3.96,9.67-5.21
				c3.85-1.38,7.99-2.13,12.31-2.13c1.07,0,2.14,0.05,3.19,0.14h0.01c7.04,0.61,13.52,3.22,18.84,7.26
				C-142.33,122.01-136.64,132.58-136.64,144.48z"/>
			<g>
				<path class="st7" d="M-158.74,110.9h0.01c0.57,1.24,0.98,2.82,1.21,4.75c0.21,2.3,0.32,4.32,0.32,6.07
					c0,2.44-0.42,5.19-1.26,8.26c-0.77,3.07-1.85,5.33-3.24,6.8c-0.91,1.11-1.78,1.88-2.62,2.3c-0.76,0.42-1.56,0.8-2.4,1.15
					c1.25-0.28,2.37-0.63,3.35-1.05c0.97-0.34,1.84-0.66,2.61-0.94c5.58-2.51,9.76-5.51,12.55-8.99c1.8-2.31,3.01-4.82,3.61-7.53
					 M-155.04,176.2c-2.96-5.97-6.92-13.95-11.89-23.94c2.72-1.33,5.47-1.53,8.26-0.63c2.79,0.98,4.85,2.79,6.17,5.44
					c1.61,3.25,3.64,7.33,6.1,12.25 M-194.12,114.53c0,25.41,0,45.38,0,59.9 M-183.35,109.38c0,16.99,0,40.39,0,70.2"/>
			</g>
			<path class="st6" d="M-166.72,140.23"/>
		</g>
		
			<text transform="matrix(1 0 0 1 -223.8318 211.0669)" style="fill:#F1F2F2; font-family:'Qanelas-Thin'; font-size:12px; letter-spacing:6;">RAVISARA</text>
	</g>
	<g>
		<path class="st5" d="M87.9,49.76c0,11.16-5,21.15-12.89,27.84v0.01c-2.46,2.09-5.2,3.86-8.15,5.25c-4.7,2.21-9.96,3.44-15.5,3.44
			c-4.32,0-8.46-0.75-12.31-2.13c-3.5-1.25-6.75-3.02-9.67-5.21v-0.01c-8.84-6.66-14.56-17.26-14.56-29.19s5.72-22.53,14.56-29.19
			v-0.01c2.92-2.19,6.17-3.96,9.67-5.21c3.85-1.38,7.99-2.13,12.31-2.13c1.07,0,2.14,0.05,3.19,0.14h0.01
			c7.04,0.61,13.52,3.22,18.84,7.26C82.21,27.29,87.9,37.86,87.9,49.76z"/>
		<g>
			<path class="st7" d="M65.8,16.18L65.8,16.18c0.58,1.24,0.99,2.82,1.22,4.75c0.21,2.3,0.32,4.32,0.32,6.07
				c0,2.44-0.42,5.19-1.26,8.26c-0.77,3.07-1.85,5.33-3.24,6.8c-0.91,1.11-1.78,1.88-2.62,2.3c-0.76,0.42-1.56,0.8-2.4,1.15
				c1.25-0.28,2.37-0.63,3.35-1.05c0.97-0.34,1.84-0.66,2.61-0.94c5.58-2.51,9.76-5.51,12.55-8.99c1.8-2.31,3.01-4.82,3.61-7.53
				 M69.5,81.48c-2.96-5.97-6.92-13.95-11.89-23.94c2.72-1.33,5.47-1.53,8.26-0.63c2.79,0.98,4.85,2.79,6.17,5.44
				c1.61,3.25,3.64,7.33,6.1,12.25 M30.42,19.81c0,25.41,0,45.38,0,59.9 M41.19,14.66c0,16.99,0,40.39,0,70.2"/>
		</g>
		<path class="st6" d="M57.82,45.51"/>
	</g>
</g>
<g id="Layer_2">
	<g>
		<g>
			<path class="st8" d="M-153.63-826.23c0.59,1.46,0.87,3.08,0.87,4.85c0,3.95-1.22,7.49-3.66,10.62c-2.5,3.13-6.26,5.82-11.27,8.07
				c-0.69,0.26-1.47,0.54-2.35,0.85c-0.88,0.38-1.88,0.69-3,0.94c0.75-0.31,1.47-0.66,2.16-1.03c0.75-0.38,1.53-1.07,2.35-2.07
				c1.25-1.32,2.22-3.35,2.91-6.11c0.75-2.75,1.12-5.22,1.12-7.41c0-1.57-0.09-3.39-0.28-5.45c-0.25-2.07-0.72-3.69-1.41-4.89
				c-1.12-1.81-2.31-3.19-3.57-4.13c-0.92-0.74-1.82-1.24-2.71-1.5h-0.01 M-152.02-769.24L-152.02-769.24
				c-3.5-6.98-6.25-12.49-8.25-16.54c-1.19-2.38-3.04-4.01-5.54-4.89c-2.51-0.81-4.98-0.62-7.42,0.57
				c5.51,11.08,9.64,19.41,12.4,24.98c0.2,0.4,0.42,0.77,0.66,1.13 M-197.65-767.9v-58.38 M-187.98-762.68v-68.82"/>
		</g>
		<path class="st5" d="M-139.13-797.09c0,11.16-5,21.15-12.89,27.84v0.01c-2.46,2.09-5.2,3.86-8.15,5.25
			c-4.7,2.21-9.96,3.44-15.5,3.44c-4.32,0-8.46-0.75-12.31-2.13c-3.5-1.25-6.75-3.02-9.67-5.21v-0.01
			c-8.84-6.66-14.56-17.26-14.56-29.19s5.72-22.53,14.56-29.19v-0.01c2.92-2.19,6.17-3.96,9.67-5.21c3.85-1.38,7.99-2.13,12.31-2.13
			c1.07,0,2.14,0.05,3.19,0.14h0.01c7.04,0.61,13.52,3.22,18.84,7.26C-144.82-819.56-139.13-808.99-139.13-797.09z"/>
		<path class="st8" d="M-187.98-831.5v68.82c-3.5-1.25-6.75-3.02-9.67-5.21v-58.4C-194.73-828.48-191.48-830.25-187.98-831.5z"/>
	</g>
	<g>
		<g>
			<path class="st8" d="M789.59-758.23c0.59,1.46,0.87,3.08,0.87,4.85c0,3.95-1.22,7.49-3.66,10.62c-2.5,3.13-6.26,5.82-11.27,8.07
				c-0.69,0.26-1.47,0.54-2.35,0.85c-0.88,0.38-1.88,0.69-3,0.94c0.75-0.31,1.47-0.66,2.16-1.03c0.75-0.38,1.53-1.07,2.35-2.07
				c1.25-1.32,2.22-3.35,2.91-6.11c0.75-2.75,1.12-5.22,1.12-7.41c0-1.57-0.09-3.39-0.28-5.45c-0.25-2.07-0.72-3.69-1.41-4.89
				c-1.12-1.81-2.31-3.19-3.57-4.13c-0.92-0.74-1.82-1.24-2.71-1.5h-0.01 M791.2-701.24v-0.01c-3.5-6.97-6.25-12.48-8.25-16.53
				c-1.19-2.38-3.04-4.01-5.54-4.89c-2.51-0.81-4.98-0.62-7.42,0.57c5.51,11.08,9.64,19.41,12.4,24.98c0.2,0.4,0.42,0.77,0.66,1.13
				 M745.57-699.9v-58.38 M755.24-694.68v-68.82"/>
		</g>
		<path class="st5" d="M804.09-729.09c0,11.16-5,21.15-12.89,27.84v0.01c-2.46,2.09-5.2,3.86-8.15,5.25
			c-4.7,2.21-9.96,3.44-15.5,3.44c-4.32,0-8.46-0.75-12.31-2.13c-3.5-1.25-6.75-3.02-9.67-5.21v-0.01
			c-8.84-6.66-14.56-17.26-14.56-29.19s5.72-22.53,14.56-29.19v-0.01c2.92-2.19,6.17-3.96,9.67-5.21c3.85-1.38,7.99-2.13,12.31-2.13
			c1.07,0,2.14,0.05,3.19,0.14h0.01c7.04,0.61,13.52,3.22,18.84,7.26C798.4-751.56,804.09-740.99,804.09-729.09z"/>
		<path class="st8" d="M755.24-763.5v68.82c-3.5-1.25-6.75-3.02-9.67-5.21v-58.4C748.49-760.48,751.74-762.25,755.24-763.5z"/>
	</g>
	<g>
		<g>
			<path d="M789.59-649.51c0.59,1.46,0.87,3.08,0.87,4.85c0,3.95-1.22,7.49-3.66,10.62c-2.5,3.13-6.26,5.82-11.27,8.07
				c-0.69,0.26-1.47,0.54-2.35,0.85c-0.88,0.38-1.88,0.69-3,0.94c0.75-0.31,1.47-0.66,2.16-1.03c0.75-0.38,1.53-1.07,2.35-2.07
				c1.25-1.32,2.22-3.35,2.91-6.11c0.75-2.75,1.12-5.22,1.12-7.41c0-1.57-0.09-3.39-0.28-5.45c-0.25-2.07-0.72-3.69-1.41-4.89
				c-1.12-1.81-2.31-3.19-3.57-4.13c-0.92-0.74-1.82-1.24-2.71-1.5h-0.01 M791.2-592.52v-0.01c-3.5-6.97-6.25-12.48-8.25-16.53
				c-1.19-2.38-3.04-4.01-5.54-4.89c-2.51-0.81-4.98-0.62-7.42,0.57c5.51,11.08,9.64,19.41,12.4,24.98c0.2,0.4,0.42,0.77,0.66,1.13
				 M745.57-591.18v-58.38 M755.24-585.96v-68.82"/>
		</g>
		<path class="st3" d="M804.09-620.37c0,11.16-5,21.15-12.89,27.84v0.01c-2.46,2.09-5.2,3.86-8.15,5.25
			c-4.7,2.21-9.96,3.44-15.5,3.44c-4.32,0-8.46-0.75-12.31-2.13c-3.5-1.25-6.75-3.02-9.67-5.21v-0.01
			c-8.84-6.66-14.56-17.26-14.56-29.19s5.72-22.53,14.56-29.19v-0.01c2.92-2.19,6.17-3.96,9.67-5.21c3.85-1.38,7.99-2.13,12.31-2.13
			c1.07,0,2.14,0.05,3.19,0.14h0.01c7.04,0.61,13.52,3.22,18.84,7.26C798.4-642.84,804.09-632.27,804.09-620.37z"/>
		<path d="M755.24-654.78v68.82c-3.5-1.25-6.75-3.02-9.67-5.21v-58.4C748.49-651.76,751.74-653.53,755.24-654.78z"/>
	</g>
	<g class="st9">
		<g>
			<path class="st8" d="M99.09-826.23c0.59,1.46,0.87,3.08,0.87,4.85c0,3.95-1.22,7.49-3.66,10.62c-2.5,3.13-6.26,5.82-11.27,8.07
				c-0.69,0.26-1.47,0.54-2.35,0.85c-0.88,0.38-1.88,0.69-3,0.94c0.75-0.31,1.47-0.66,2.16-1.03c0.75-0.38,1.53-1.07,2.35-2.07
				c1.25-1.32,2.22-3.35,2.91-6.11c0.75-2.75,1.12-5.22,1.12-7.41c0-1.57-0.09-3.39-0.28-5.45c-0.25-2.07-0.72-3.69-1.41-4.89
				c-1.12-1.81-2.31-3.19-3.57-4.13c-0.92-0.74-1.82-1.24-2.71-1.5h-0.01 M100.7-769.24L100.7-769.24
				c-3.5-6.98-6.25-12.49-8.25-16.54c-1.19-2.38-3.04-4.01-5.54-4.89c-2.51-0.81-4.98-0.62-7.42,0.57
				c5.51,11.08,9.64,19.41,12.4,24.98c0.2,0.4,0.42,0.77,0.66,1.13 M55.07-767.9v-58.38 M64.74-762.68v-68.82"/>
		</g>
		<path class="st5" d="M113.59-797.09c0,11.16-5,21.15-12.89,27.84v0.01c-2.46,2.09-5.2,3.86-8.15,5.25
			c-4.7,2.21-9.96,3.44-15.5,3.44c-4.32,0-8.46-0.75-12.31-2.13c-3.5-1.25-6.75-3.02-9.67-5.21v-0.01
			c-8.84-6.66-14.56-17.26-14.56-29.19s5.72-22.53,14.56-29.19v-0.01c2.92-2.19,6.17-3.96,9.67-5.21c3.85-1.38,7.99-2.13,12.31-2.13
			c1.07,0,2.14,0.05,3.19,0.14h0.01c7.04,0.61,13.52,3.22,18.84,7.26C107.9-819.56,113.59-808.99,113.59-797.09z"/>
		<path class="st8" d="M64.74-831.5v68.82c-3.5-1.25-6.75-3.02-9.67-5.21v-58.4C57.99-828.48,61.24-830.25,64.74-831.5z"/>
	</g>
	<g class="st9">
		<g>
			<path class="st8" d="M602.37-826.23c0.59,1.46,0.87,3.08,0.87,4.85c0,3.95-1.22,7.49-3.66,10.62c-2.5,3.13-6.26,5.82-11.27,8.07
				c-0.69,0.26-1.47,0.54-2.35,0.85c-0.88,0.38-1.88,0.69-3,0.94c0.75-0.31,1.47-0.66,2.16-1.03c0.75-0.38,1.53-1.07,2.35-2.07
				c1.25-1.32,2.22-3.35,2.91-6.11c0.75-2.75,1.12-5.22,1.12-7.41c0-1.57-0.09-3.39-0.28-5.45c-0.25-2.07-0.72-3.69-1.41-4.89
				c-1.12-1.81-2.31-3.19-3.57-4.13c-0.92-0.74-1.82-1.24-2.71-1.5h-0.01 M603.98-769.24L603.98-769.24
				c-3.5-6.98-6.25-12.49-8.25-16.54c-1.19-2.38-3.04-4.01-5.54-4.89c-2.51-0.81-4.98-0.62-7.42,0.57
				c5.51,11.08,9.64,19.41,12.4,24.98c0.2,0.4,0.42,0.77,0.66,1.13 M558.35-767.9v-58.38 M568.02-762.68v-68.82"/>
		</g>
		<path class="st5" d="M616.87-797.09c0,11.16-5,21.15-12.89,27.84v0.01c-2.46,2.09-5.2,3.86-8.15,5.25
			c-4.7,2.21-9.96,3.44-15.5,3.44c-4.32,0-8.46-0.75-12.31-2.13c-3.5-1.25-6.75-3.02-9.67-5.21v-0.01
			c-8.84-6.66-14.56-17.26-14.56-29.19s5.72-22.53,14.56-29.19v-0.01c2.92-2.19,6.17-3.96,9.67-5.21c3.85-1.38,7.99-2.13,12.31-2.13
			c1.07,0,2.14,0.05,3.19,0.14h0.01c7.04,0.61,13.52,3.22,18.84,7.26C611.18-819.56,616.87-808.99,616.87-797.09z"/>
		<path class="st8" d="M568.02-831.5v68.82c-3.5-1.25-6.75-3.02-9.67-5.21v-58.4C561.27-828.48,564.52-830.25,568.02-831.5z"/>
	</g>
	<g>
		<g>
			<path class="st8" d="M349.65-826.23c0.59,1.46,0.87,3.08,0.87,4.85c0,3.95-1.22,7.49-3.66,10.62c-2.5,3.13-6.26,5.82-11.27,8.07
				c-0.69,0.26-1.47,0.54-2.35,0.85c-0.88,0.38-1.88,0.69-3,0.94c0.75-0.31,1.47-0.66,2.16-1.03c0.75-0.38,1.53-1.07,2.35-2.07
				c1.25-1.32,2.22-3.35,2.91-6.11c0.75-2.75,1.12-5.22,1.12-7.41c0-1.57-0.09-3.39-0.28-5.45c-0.25-2.07-0.72-3.69-1.41-4.89
				c-1.12-1.81-2.31-3.19-3.57-4.13c-0.92-0.74-1.82-1.24-2.71-1.5h-0.01 M351.26-769.24L351.26-769.24
				c-3.5-6.98-6.25-12.49-8.25-16.54c-1.19-2.38-3.04-4.01-5.54-4.89c-2.51-0.81-4.98-0.62-7.42,0.57
				c5.51,11.08,9.64,19.41,12.4,24.98c0.2,0.4,0.42,0.77,0.66,1.13 M305.63-767.9v-58.38 M315.3-762.68v-68.82"/>
		</g>
		<path class="st5" d="M364.15-797.09c0,11.16-5,21.15-12.89,27.84v0.01c-2.46,2.09-5.2,3.86-8.15,5.25
			c-4.7,2.21-9.96,3.44-15.5,3.44c-4.32,0-8.46-0.75-12.31-2.13c-3.5-1.25-6.75-3.02-9.67-5.21v-0.01
			c-8.84-6.66-14.56-17.26-14.56-29.19s5.72-22.53,14.56-29.19v-0.01c2.92-2.19,6.17-3.96,9.67-5.21c3.85-1.38,7.99-2.13,12.31-2.13
			c1.07,0,2.14,0.05,3.19,0.14h0.01c7.04,0.61,13.52,3.22,18.84,7.26C358.46-819.56,364.15-808.99,364.15-797.09z"/>
		<path class="st8" d="M315.3-831.5v68.82c-3.5-1.25-6.75-3.02-9.67-5.21v-58.4C308.55-828.48,311.8-830.25,315.3-831.5z"/>
	</g>
	<g>
		<path class="st5" d="M808.41-243.7c0,11.16-5,21.15-12.89,27.84v0.01c-2.46,2.09-5.2,3.86-8.15,5.25
			c-4.7,2.21-9.96,3.44-15.5,3.44c-4.32,0-8.46-0.75-12.31-2.13c-3.5-1.25-6.75-3.02-9.67-5.21v-0.01
			c-8.84-6.66-14.56-17.26-14.56-29.19s5.72-22.53,14.56-29.19v-0.01c2.92-2.19,6.17-3.96,9.67-5.21c3.85-1.38,7.99-2.13,12.31-2.13
			c1.07,0,2.14,0.05,3.19,0.14h0.01c7.04,0.61,13.52,3.22,18.84,7.26C802.72-266.17,808.41-255.6,808.41-243.7z"/>
		<g>
			<path class="st6" d="M786.31-277.28h0.01c0.57,1.24,0.98,2.82,1.21,4.75c0.21,2.3,0.32,4.32,0.32,6.07
				c0,2.44-0.42,5.19-1.26,8.26c-0.77,3.07-1.85,5.33-3.24,6.8c-0.91,1.11-1.78,1.88-2.62,2.3c-0.76,0.42-1.56,0.8-2.4,1.15
				c1.25-0.28,2.37-0.63,3.35-1.05c0.97-0.34,1.84-0.66,2.61-0.94c5.58-2.51,9.76-5.51,12.55-8.99c1.8-2.31,3.01-4.82,3.61-7.53
				 M790.01-211.98c-2.96-5.97-6.92-13.95-11.89-23.94c2.72-1.33,5.47-1.53,8.26-0.63c2.79,0.98,4.85,2.79,6.17,5.44
				c1.61,3.25,3.64,7.33,6.1,12.25 M750.93-273.65c0,25.41,0,45.38,0,59.9 M761.7-278.8c0,16.99,0,40.39,0,70.2"/>
		</g>
		<path class="st6" d="M778.33-247.95"/>
	</g>
	<g class="st10">
		<path class="st11" d="M925.05-130.05c0,11.16-5,21.15-12.89,27.84v0.01c-2.46,2.09-5.2,3.86-8.15,5.25
			c-4.7,2.21-9.96,3.44-15.5,3.44c-4.32,0-8.46-0.75-12.31-2.13c-3.5-1.25-6.75-3.02-9.67-5.21v-0.01
			c-8.84-6.66-14.56-17.26-14.56-29.19s5.72-22.53,14.56-29.19v-0.01c2.92-2.19,6.17-3.96,9.67-5.21c3.85-1.38,7.99-2.13,12.31-2.13
			c1.07,0,2.14,0.05,3.19,0.14h0.01c7.04,0.61,13.52,3.22,18.84,7.26C919.36-152.52,925.05-141.95,925.05-130.05z"/>
		<g>
			<path class="st12" d="M902.95-163.63h0.01c0.57,1.24,0.98,2.82,1.21,4.75c0.21,2.3,0.32,4.32,0.32,6.07
				c0,2.44-0.42,5.19-1.26,8.26c-0.77,3.07-1.85,5.33-3.24,6.8c-0.91,1.11-1.78,1.88-2.62,2.3c-0.76,0.42-1.56,0.8-2.4,1.15
				c1.25-0.28,2.37-0.63,3.35-1.05c0.97-0.34,1.84-0.66,2.61-0.94c5.58-2.51,9.76-5.51,12.55-8.99c1.8-2.31,3.01-4.82,3.61-7.53
				 M906.65-98.33c-2.96-5.97-6.92-13.95-11.89-23.94c2.72-1.33,5.47-1.53,8.26-0.63c2.79,0.98,4.85,2.79,6.17,5.44
				c1.61,3.25,3.64,7.33,6.1,12.25 M867.57-160c0,25.41,0,45.38,0,59.9 M878.34-165.15c0,16.99,0,40.39,0,70.2"/>
		</g>
		<path class="st12" d="M894.97-134.3"/>
	</g>
	<g>
		<path class="st3" d="M808.41-130.05c0,11.16-5,21.15-12.89,27.84v0.01c-2.46,2.09-5.2,3.86-8.15,5.25
			c-4.7,2.21-9.96,3.44-15.5,3.44c-4.32,0-8.46-0.75-12.31-2.13c-3.5-1.25-6.75-3.02-9.67-5.21v-0.01
			c-8.84-6.66-14.56-17.26-14.56-29.19s5.72-22.53,14.56-29.19v-0.01c2.92-2.19,6.17-3.96,9.67-5.21c3.85-1.38,7.99-2.13,12.31-2.13
			c1.07,0,2.14,0.05,3.19,0.14h0.01c7.04,0.61,13.52,3.22,18.84,7.26C802.72-152.52,808.41-141.95,808.41-130.05z"/>
		<g>
			<path class="st4" d="M786.31-163.63h0.01c0.57,1.24,0.98,2.82,1.21,4.75c0.21,2.3,0.32,4.32,0.32,6.07
				c0,2.44-0.42,5.19-1.26,8.26c-0.77,3.07-1.85,5.33-3.24,6.8c-0.91,1.11-1.78,1.88-2.62,2.3c-0.76,0.42-1.56,0.8-2.4,1.15
				c1.25-0.28,2.37-0.63,3.35-1.05c0.97-0.34,1.84-0.66,2.61-0.94c5.58-2.51,9.76-5.51,12.55-8.99c1.8-2.31,3.01-4.82,3.61-7.53
				 M790.01-98.33c-2.96-5.97-6.92-13.95-11.89-23.94c2.72-1.33,5.47-1.53,8.26-0.63c2.79,0.98,4.85,2.79,6.17,5.44
				c1.61,3.25,3.64,7.33,6.1,12.25 M750.93-160c0,25.41,0,45.38,0,59.9 M761.7-165.15c0,16.99,0,40.39,0,70.2"/>
		</g>
		<path class="st4" d="M778.33-134.3"/>
	</g>
	<text transform="matrix(1 0 0 1 -487.6758 -993.4775)" style="font-family:'Qanelas-Regular'; font-size:38.2957px;">Vol - 01</text>
	<text transform="matrix(1 0 0 1 -487.6759 -498.8375)" style="font-family:'Qanelas-Regular'; font-size:38.2957px;">Vol - 02</text>
	<text transform="matrix(1 0 0 1 -487.676 3.7225)" style="font-family:'Qanelas-Regular'; font-size:38.2957px;">Vol - 03</text>
</g>
</svg>
